<?xml version="1.0" encoding="utf-8"?>
<!-- Generator: Adobe Illustrator 23.0.1, SVG Export Plug-In . SVG Version: 6.00 Build 0)  -->
<svg version="1.1" xmlns="http://www.w3.org/2000/svg" xmlns:xlink="http://www.w3.org/1999/xlink" x="0px" y="0px"
	 viewBox="0 0 750 500" style="enable-background:new 0 0 750 500;" xml:space="preserve">
<style type="text/css">
	.st0{fill:#FFFFFF;}
	.st1{fill:#F5E9FF;}
	.st2{fill:#E5D7FF;}
	.st3{fill:#456DFF;}
	
		.st4{opacity:0.25;fill:none;stroke:#000000;stroke-width:1.7943;stroke-linecap:round;stroke-linejoin:round;stroke-miterlimit:10;}
	.st5{fill:#A52CE5;}
	.st6{fill:#320A44;}
	.st7{fill:#490A0A;}
	.st8{fill:#CB99FF;}
	.st9{opacity:0.25;}
	.st10{fill:url(#SVGID_1_);}
	.st11{fill:url(#SVGID_2_);}
	.st12{fill:url(#SVGID_3_);}
	.st13{opacity:0.25;fill:#FFFFFF;}
	.st14{fill:#4A0884;}
</style>
<g id="BACKGROUND">
	<rect class="st0" width="750" height="500"/>
</g>
<g id="OBJECTS">
	<g>
		<g>
			<path class="st1" d="M79.3,250.9c0,0-28.9-70.1,31.6-123s126,17.9,182.2,15.1c56.2-2.7,94-104.5,170.6-100.3
				c76.6,4.1,110.8,78.3,89.2,130.5c-21.5,52.2-30.1,134.8-7.3,178.4s72.8,10.5,104.9,46.3c32.1,35.8-65.2,102-65.2,102H390.1
				c0,0-40-62.4-64.6-62.1C301,438.1,126.9,385.4,79.3,250.9z"/>
			<path class="st2" d="M497.6,203.5c0,0,67.9-85-6.2-136.5c-74.1-51.5-114,56.8-176.7,68.3c-62.7,11.5-187.3-1.4-185.5,94.8
				c1.8,96.2,68.3,130.2,72.4,177.1c4.1,46.9,36.2,64.8,66.9,52.2s118.4-162.2,167.9-185.3C485.9,251,497.6,203.5,497.6,203.5z"/>
			<path class="st2" d="M262.8,105.9c0,0,42.3,20.7,51.2-4.3C322.9,76.7,238,92,262.8,105.9z"/>
		</g>
		<g>
			<g>
				<path class="st3" d="M390.4,479.2c0,0-15.4-53.6-54.7-72c2.6,11.2,0.9,77.4,22,92.8H404L390.4,479.2z"/>
				<path class="st4" d="M388.1,472.6c0,0-11.9,8.8-12.5,18.1c-21.8-10.3-29.6-9-29.6-9"/>
				<path class="st4" d="M380,453c0,0-10.9,6.8-12.1,15.7c0,0-17.3-8.6-27-8.9"/>
				<path class="st4" d="M367.1,432.9c0,0-7,2.7-7.7,9.9c-10.4-4.3-21.1-4.1-21.1-4.1"/>
				<path class="st4" d="M380,500c-2.6-4.4-9-19.6-16.7-46.4c-7.7-26.8-27.6-46.4-27.6-46.4"/>
			</g>
			<g>
				<path class="st5" d="M433.1,500c0,0,0.2-32.9-44.3-47c-6.4,26.3,11.8,47,11.8,47L433.1,500z"/>
				<path class="st4" d="M388.8,453c0,0,28.4,36.9,28.2,47"/>
				<path class="st4" d="M428.3,483c0,0-11,3-12.8,11.1c-10.1-3.3-20.1-1.7-20.1-1.7"/>
				<path class="st4" d="M417.3,468.7c0,0-8.9,5.2-9.5,11.5c-13.9-4.7-18.5-2.2-18.5-2.2"/>
				<path class="st4" d="M404.9,459.9c0,0-4.7,3.9-5.2,8.1c-6.3-1.8-12.2-1.2-12.2-1.2"/>
			</g>
		</g>
		<g>
			<path class="st0" d="M225.9,317.8c0,0-8.2-21.1-14-30.2c-5.7-9.2-5.3-20.6-9.8-31.2c-4.6-10.5-13.5-13.5-16-23.6
				c-2.5-10.1-8.7-17.2-8.7-17.2s217.5-38.8,251.5-39c34-0.2,45,119,45,119l-225,45.3L225.9,317.8z"/>
			<g>
				<path class="st6" d="M302.8,280.4l-3.4-10.9c-0.6-2.1-2.8-3.4-4.8-3l-18.7,3.9c-2.2,0.5-4.4-0.9-4.9-3.1l-1.4-5.8
					c-0.1-0.6-0.1-1.2,0-1.8l11.5-42.2c0.3-1,1.2-1.8,2.5-1.9l7.5-0.9c1.8-0.2,3.6,0.9,4.2,2.5l10.7,31.2c0.6,1.9,2.7,3.1,4.6,2.7v0
					c1.9-0.3,3.9,0.9,4.6,2.8l1.6,4.3c0.7,1.9-0.3,3.8-2.1,4.2l0,0c-1.9,0.4-2.9,2.3-2.2,4.3l3.6,10.6c0.7,2.1-0.3,4.3-2.3,4.7
					l-5.9,1.4C305.7,284,303.5,282.6,302.8,280.4z M291,254.8c2-0.4,3.1-2.2,2.5-4.1l-3.3-10.5c-1.1-3.5-1.9-7.3-2.6-10.7l-0.3,0
					c-0.5,3.7-1,6.8-1.8,10.8l-3.5,15.9l0.1,0.2L291,254.8z"/>
				<path class="st6" d="M350.7,236.8c10.6,22.7,7.6,35.5-2.7,38c-14.5,3.5-26.4-13.7-32.9-31.2c-6.6-17.9-5.9-31.7,6.3-33.1
					C334.6,208.9,344.3,223.1,350.7,236.8z M328,241c6.1,15.4,10.9,22.3,15.2,21.3c3.9-0.8,2.1-8.6-4.3-23.2
					c-5.6-12.8-9.8-19.7-13.6-19.2C321.6,220.4,322.2,226.9,328,241z"/>
				<path class="st6" d="M387,260.7l-4.7-8.9c-0.9-1.7-2.8-2.8-4.3-2.5l-13.7,2.8c-1.6,0.3-3.6-0.8-4.4-2.6l-2.3-4.8
					c-0.2-0.5-0.4-1-0.3-1.5l0.5-35c0-0.9,0.6-1.5,1.5-1.6l5.7-0.7c1.3-0.2,3,0.8,3.8,2.1l14.5,26.3c0.9,1.6,2.7,2.6,4.1,2.3l0,0
					c1.4-0.3,3.2,0.8,4.1,2.4l2,3.6c0.9,1.6,0.5,3.2-0.9,3.4l0,0c-1.4,0.3-1.8,1.9-0.9,3.5l4.8,8.7c1,1.7,0.6,3.5-0.9,3.8l-4.3,1
					C389.9,263.7,387.9,262.5,387,260.7z M373,239.6c1.5-0.3,2-1.8,1.1-3.4l-4.6-8.7c-1.5-2.9-2.9-6.1-4.2-9l-0.3,0
					c0.4,3.1,0.6,5.7,0.7,9l0.4,13.1l0.1,0.2L373,239.6z"/>
			</g>
			<path class="st7" d="M418.7,472.5l-2.3,27.5h153.6l-6.9-24.2C563.1,475.8,423.7,470.7,418.7,472.5z"/>
			<path class="st8" d="M573.5,482.9c-21.3,22.2-89.4,19.6-127.1,9.9c-13.8-3.5-23.5-8-25.4-12.6c-3.6-8.5-3.8-18.6-2.9-28.9
				c0.9-10.3,2.9-20.7,3.8-29.5c0.4-3.7,0.4-8.7,0.1-14.3c-0.6-13.7-2.7-30.9-4-40.7c-0.6-4.8-1.1-7.8-1.1-7.8s-38.2,47.1-50.1,57.6
				c-1.7,1.6-2.9,2.3-3.3,2c-1.5-1-5-14.6-8.2-28.9c-3.7-16.4-6.9-33.8-6.2-34.8c0-0.1,0.1-0.2,0.2-0.4c3.2-6.5,34.1-83.9,40.6-96.9
				c3.2-6.4,15.2-18,26.8-28.4c7.5-6.7,14.8-12.8,19.6-16.8c3.4-2.8,5.6-4.6,5.6-4.6s13-11.2,23.8-14.4c10.8-3.1,25.6-3.1,25.6-3.1
				c4.4,0,8.6,0.3,12.6,1.1c5.8,1.2,11.1,3.2,15.9,5.9c32.7,18.8,42.9,71,47.2,111c2.2,20.7,2.8,38.1,4.2,45.7
				C575.8,380.2,583.4,472.6,573.5,482.9z"/>
			<path class="st9" d="M573.5,482.9c-21.3,22.2-89.4,19.6-127.1,9.9c-4.2-3.7-7.4-7.8-9.2-12.1c-5.7-13.2-13.1-22-19.1-29.3
				c0.9-10.3,2.9-20.7,3.8-29.5c0.4-3.7,0.4-8.7,0.1-14.3c17.7-25.4,20.5-59.8,20.1-111.3c-0.3-40.5-16.2-59.5-25.3-67
				c7.5-6.7,14.8-12.8,19.6-16.8c26.8,10.4,41.7,56.2,51.7,42.9c8.6-11.5,10.6-48,15.8-63.8c5.8,1.2,11.1,3.2,15.9,5.9
				c11.5,20.9,29.9,63.8,47.2,111c2.2,20.7,2.8,38.1,4.2,45.7C575.8,380.2,583.4,472.6,573.5,482.9z"/>
			<linearGradient id="SVGID_1_" gradientUnits="userSpaceOnUse" x1="428.818" y1="182.2693" x2="472.1108" y2="154.5528">
				<stop  offset="0" style="stop-color:#FF8D8D"/>
				<stop  offset="1" style="stop-color:#E55555"/>
			</linearGradient>
			<path class="st10" d="M481.1,188.2c0,0-0.4,0.2-1,0.6c-5.3,3-30.3,16.7-29.5,10.6c0.6-4.3-2.5-8.2-4.8-10.5
				c-1.3-1.3-2.4-2.1-2.4-2.1s-3.6,4.9-8.1,2.7c-11.5-5.8-18.7-19.6-22.4-29.1c-0.9-2.4-1.7-4.5-2.2-6.1c5.2-0.8,8.6-2.8,10-1.8
				c2.7,1.8,3.6,6.3,6.3,6.3c2.7,0,0-10.3,4.9-13c4.4-2.4,11.6,14.6,6.3,19.7c-1,1-0.8,2.7,0.4,3.5c17.6,11.7,29.8,7.5,32.8,3.2
				c0.3,0.3,0.6,0.6,1,0.8C474.7,181.5,481.1,188.2,481.1,188.2z"/>
			<path class="st9" d="M481.1,188.2c0,0-0.4,0.2-1,0.6c-2.7,0.6-6.1,1.2-8.2-0.4c-10-8-20.1,1.6-26.1,0.6c-1.3-1.3-2.4-2.1-2.4-2.1
				c1-5.7-0.1-7.5-6.5-13.1c-6.4-5.6-0.7-8.9,0.2-12.1c0.9-3.1-1.3-11.2-3.6-11.2c-2.2,0-2.7,11.2-6.3,10.8c-3.6-0.4-5.4-4.5-9.4-4
				c-1.6,0.2-3.4,1.6-4.9,3.2c-0.9-2.4-1.7-4.5-2.2-6.1c5.2-0.8,8.6-2.8,10-1.8c2.7,1.8,3.6,6.3,6.3,6.3c2.7,0,0-10.3,4.9-13
				c4.4-2.4,11.6,14.6,6.3,19.7c-1,1-0.8,2.7,0.4,3.5c17.6,11.7,29.8,7.5,32.8,3.2c0.3,0.3,0.6,0.6,1,0.8
				C474.7,181.5,481.1,188.2,481.1,188.2z"/>
			<path class="st6" d="M488.2,134.6L488.2,134.6c-0.7,12.1-11.3,27.6-11.3,31.4c0,5.8,3.6,6.7,3.6,6.7s-4.5,2.6-8,0.3
				c-0.3-0.2-0.7-0.5-1-0.8c-3,4.2-15.2,8.5-32.8-3.2c-1.2-0.8-1.4-2.5-0.4-3.5c5.3-5.2-1.9-22.1-6.3-19.7c-4.9,2.7-2.2,13-4.9,13
				c-2.7,0-3.6-4.5-6.3-6.3c-1.4-0.9-4.8,1-10,1.8c-4.6,0.8-10.6,0.6-17.8-3.2c-8.8-4.6-13.2-15.5-12.2-25.9
				c0.7-7.7,4.5-15.3,11.8-19.8c-1.3,7.2,1.8,12.6,1.8,12.6s0.9-23.3,15.3-26.9c-2.7,5.8,0,11.2,0,11.2s13.9-20.6,35.9-17
				c16,2.6,24.1,10.8,28.3,18.7c4.6,8.6,4.4,16.7,4.4,16.7C486.2,123,488.6,128.3,488.2,134.6z"/>
			<path class="st6" d="M442.6,207.9c0,0-1.3-6.3,0.9-10.3c2.2-4,26-14.8,35.4-15.7c9.4-0.9,12.1,5.4,12.6,8.5
				C472.2,190,442.6,207.9,442.6,207.9z"/>
			<path class="st6" d="M366.9,416.7c0,2-0.4,3.2-1.1,3.3c-5.4,0.7-18.6,6.2-21.4,2.7c-0.6-0.7-1.3-3.6-2.2-7.8
				c-1.2-5.9-2.5-14.4-3.6-23c-2-15.4-3.5-31.4-2.7-33.9c0.1-0.3,0.2-0.6,0.4-0.8c2.5-4.1,12.9-2.9,12.9-2.9
				c0.1,0.1,0.2,0.3,0.3,0.4c3,4.8,7.4,17.6,11.1,30.6C364.1,397.9,367,410.9,366.9,416.7z"/>
			<linearGradient id="SVGID_2_" gradientUnits="userSpaceOnUse" x1="219.9151" y1="305.7305" x2="358.2686" y2="402.8527">
				<stop  offset="0" style="stop-color:#FF8D8D"/>
				<stop  offset="1" style="stop-color:#E55555"/>
			</linearGradient>
			<path class="st11" d="M342.2,414.9c-3.5-0.5-8.1-1.4-13.1-3.3c-5.2-1.9-21.4-14-38.8-27.5c-5.6-4.4-11.3-8.9-16.8-13.3
				c-17.3-13.8-32.4-26.1-35-27.8c-5.8-4-14.8-4.9-19.3-13.5c-4.5-8.5-0.4-28.3,0-28.7c0.4-0.4,9,14.4,10.3,14.4
				c1.3,0,2.7-13.5,5.4-12.1c2.7,1.3,9.9,25.6,14.4,28.7c2.3,1.6,25.4,8.3,47.8,14.6c16.2,4.5,32,8.8,39.2,10.8
				c-0.2,0.2-0.3,0.5-0.4,0.8c-0.8,2.6,0.7,18.5,2.7,33.9C339.7,400.5,341,409,342.2,414.9z"/>
			<linearGradient id="SVGID_3_" gradientUnits="userSpaceOnUse" x1="219.9154" y1="305.7307" x2="358.269" y2="402.8529">
				<stop  offset="0" style="stop-color:#FF8D8D"/>
				<stop  offset="1" style="stop-color:#E55555"/>
			</linearGradient>
			<path class="st12" d="M342.2,414.9c-3.5-0.5-8.1-1.4-13.1-3.3c-5.2-1.9-21.4-14-38.8-27.5c-7.7-17.4,1.2-31.3,6.8-37.7
				c16.2,4.5,32,8.8,39.2,10.8c-0.2,0.2-0.3,0.5-0.4,0.8C334.6,361.9,338.9,398.4,342.2,414.9z"/>
			<path class="st9" d="M480.5,172.7c0,0-4.5,2.6-8,0.3c-0.3-0.2-0.7-0.5-1-0.8c-3,4.2-15.2,8.5-32.8-3.2c-1.2-0.8-1.4-2.5-0.4-3.5
				c5.3-5.2-1.9-22.1-6.3-19.7c-4.9,2.7-2.2,13-4.9,13c-2.7,0-3.6-4.5-6.3-6.3c-1.4-0.9-4.8,1-10,1.8c-4.6,0.8-10.6,0.6-17.8-3.2
				c-8.8-4.6-13.2-15.5-12.2-25.9c0.8,2.2,5.5,12.1,23.2,13.6c-6.4-3.7-4.1-16.6-4.1-16.6s5.5,7.3,19.9,8.5
				c14.4,1.1,19.7-3.1,31.2,3.4c11.5,6.6,9.6,12.7,9.6,12.7s2.4-6.6-2-12.3c8.7,2.7,8.3,16,8.3,16s3.6-7.6,9.4-9
				c5.8-1.4,6.9,4.1,6.9,4.1s4-4.1,5.2-11c-0.7,12.1-11.3,27.5-11.3,31.4C476.9,171.8,480.5,172.7,480.5,172.7z"/>
			<path class="st13" d="M473.8,104c-7.3-10.4-22.7-14.8-35.9-13.8c11.3,4.2,11.1,11.4,11.1,11.4s-3.4-8.8-15.8-9
				c-12.4-0.2-18,4.1-19.2,9c-1.2,4.9,2.2,10.5,2.2,10.5s-5.3-0.5-8.2-8.6c-2.9-8.2,1.7-12.3,1.7-12.3c-2.7,5.8,0,11.2,0,11.2
				s13.9-20.6,35.9-17C461.4,87.9,469.6,96.1,473.8,104z"/>
			<path class="st9" d="M418.1,366.9c-0.6-4.8-1.1-7.8-1.1-7.8s-38.2,47.1-50.1,57.6c0,2-0.4,3.2-1.1,3.3
				c-5.4,0.7-18.6,6.2-21.4,2.7c-0.6-0.7-1.3-3.6-2.2-7.8c-3.5-0.5-8.1-1.4-13.1-3.3c-5.2-1.9-21.4-14-38.8-27.5
				c-5.6-4.4-11.3-8.9-16.8-13.3c16.5,5.9,47.9,16.9,65.2,21c4.8,1.2,8.6,1.8,10.6,1.6c1.5-0.1,3.7-1.4,6.3-3.5
				c1.6-1.3,3.3-2.8,5.1-4.6c19.7-19.4,53.6-67.2,53.6-77.5C414.2,295.6,437,325.3,418.1,366.9z"/>
			<g>
				<path class="st6" d="M452.9,398c0,0-20.1,18.8-34.3,21.8c-4.1,13.3-2.6,22.4,7,22.9c9.7,0.5,30.3-15.3,32.1-27.8
					C459.5,402.3,452.9,398,452.9,398z"/>
				<path class="st6" d="M466.8,263.8c0,0-20.6,30.4-20,7.2c0.3-10.6-5.6-21.2-12-29.5c-7.5-9.7-15.8-16.4-15.8-16.4
					c-2.1-1.8,5.6-13.6,15.4-13.6c12.9,3.8,21.2,18.2,26.2,31C465,253.9,466.8,263.8,466.8,263.8z"/>
				<path class="st9" d="M460.6,242.6c4.4,11.3,6.2,21.3,6.2,21.3s-20.6,30.4-20,7.2c0.3-10.6-5.6-21.2-12-29.5
					C440.8,242.3,450.3,243.1,460.6,242.6z"/>
				<path class="st6" d="M538.6,246.4c0,0-38.7,19.3-25.9,0c4.5-6.8,5.1-15.6,3.8-24.1c-2.2-15.3-10.2-29.7-10.2-29.7
					c-0.8-2.7,12.4-4,20.6,1.2c4.3,4.9,7.2,10.6,9,16.6C541.5,227.8,538.6,246.4,538.6,246.4z"/>
				<path class="st9" d="M538.6,246.4c0,0-38.7,19.3-25.9,0c4.5-6.8,5.1-15.6,3.8-24.1c7.2-4.5,13.8-8.9,19.5-11.9
					C541.5,227.8,538.6,246.4,538.6,246.4z"/>
				<path class="st14" d="M584.4,429.6c0,1.4-0.1,2.7-0.3,3.9c-2.5,17.9-46.3,37.6-62.3,41.4c-16,3.8-21.9-5.1-21.9-5.1
					c-3.9-0.9-7-4.4-9.5-9.6c-11.4-24-9.2-83.7-9.2-83.7l17.5-43.2c0,0,4.2-0.6,10.6-1.3h0c19.9-2.2,60.8-5.2,61.5,6
					c0.3,5.5,2.6,17.7,5.2,31.8C580,391,584.7,416.6,584.4,429.6z"/>
				<path class="st9" d="M576.1,369.7c-3.5,8.2-8.1,15.2-11.9,16.3c-7.6,2.3-56.1-0.9-61.8-8.9c-5.7-8-2.5-42.3-2.5-42.3l9.4-2.9h0
					c19.9-2.2,60.8-5.2,61.5,6C571.2,343.5,573.5,355.7,576.1,369.7z"/>
				<path class="st14" d="M493.3,409c-5.8,30.2,6.6,60.8,6.6,60.8s-22.7,2.1-36.1-14.4c-13.4-16.5-10.3-30.2-9.3-41.9
					c0.2-2.7-3.4-10.8-3.7-16.4c-0.2-4.1,2.6-9.7,2.6-9.7c-1.1-12.9-2.7-26.4-3.9-35.8c-0.2-1.9-0.5-3.7-0.7-5.3
					c-1.9-15.2,8-24.7,8-24.7c4.3-8.3,16.2-10.1,26.5-8.5c7.9,1.2,14.9,4.5,16.6,8.5c0.7,1.6,1.2,4.4,1.4,8.2c0.2,3.4,0.2,7.5,0,12
					C500.6,361,497.2,388.9,493.3,409z"/>
				<path class="st14" d="M565.1,366.4c-7.3,4.9-39.9,8.9-51.4,2.1c-9.9-5.9-10-15.5-12.5-26.6c-0.4-1.7-0.8-3.5-1.4-5.4
					c-0.5-1.7-1.2-3.4-2-5.1c-4.1-8.2-11.1-15.2-14.6-18.3c-1.3-1.2-2.1-1.8-2.1-1.8s55.5-41.4,76.7-35.5
					c8.7,2.4,14.9,9.9,19.1,18.5c6,12.3,8.2,26.7,8.4,31.5C585.7,334.1,572.4,361.5,565.1,366.4z"/>
				<path class="st9" d="M577,294.3c-20.7,9.3-63.4,29.6-75.8,35.5c-2.2,1-3.4,1.6-3.4,1.6s-16.9,24-33.7,24.2
					c-6.6,0.1-11.4-1.8-14.7-4c-0.2-1.9-0.5-3.7-0.7-5.3c-1.9-15.2,8-24.7,8-24.7c4.3-8.3,16.2-10.1,26.5-8.5
					c-1.3-1.2-2.1-1.8-2.1-1.8s55.5-41.4,76.7-35.5C566.7,278.2,572.8,285.7,577,294.3z"/>
				<path class="st3" d="M580.9,271.3c-4.4,8.7-104.5,51.8-110.9,57.5c-0.9,0.8-1.8,1.6-2.7,2.3c-0.4,0.3-0.7,0.6-1.1,0.9
					c-0.9,0.7-1.8,1.4-2.7,2c-0.5,0.4-1.1,0.7-1.6,1c-1.1,0.6-2.2,1.2-3.3,1.7c0,0,0,0,0,0c-2.2,0.9-4.4,1.4-6.8,1.3
					c-0.1,0-0.3,0-0.4,0c-0.1,0-0.3,0-0.4,0c-0.1,0-0.3,0-0.4,0c1.1,0.1,2.3,0.1,3.4-0.1c11.5-1.9,18.4-18.1,15.4-36.2
					c-0.6-3.6-1.5-7.1-2.8-10.2c-4.9-12.5-14.2-20.6-23.4-19.1c-4.5,0.7-8.3,3.7-11.1,8.1c0.1-0.3,2.3-10.4,28.2-20.1
					c26.3-9.9,52.9-18.8,59.3-22c4.9-2.4,18.2-11.2,31.5-12.9c4.2-0.5,8.5-0.4,12.5,1C580.2,231.9,585.3,262.6,580.9,271.3z"/>
				<path class="st14" d="M454.1,337.8c-1.2,0.2-2.3,0.2-3.5,0.1c-0.1,0-0.3,0-0.4,0c0,0,0,0,0,0c-10.1-1.3-19.6-13.4-22.2-29.4
					c-1.8-11,0-21.2,4.3-28c2.8-4.4,6.6-7.4,11.1-8.1c11.5-1.9,23.2,11.3,26.2,29.3C472.5,319.7,465.6,335.9,454.1,337.8z"/>
				<path class="st4" d="M464.1,295.8c0,0-8.6-20.2-20.8-16s-7,48.1,5.4,48.3s14-33.3,6.2-37.3c-7.8-4-16.2,12.4-9.9,22
					c6.3,9.6,7-6.4,5-11.1"/>
				<path class="st9" d="M580.9,271.3c-4.4,8.7-104.5,51.8-110.9,57.5c-0.9,0.8-1.8,1.6-2.7,2.3c-0.4,0.3-0.7,0.6-1.1,0.9
					c-0.9,0.7-1.8,1.4-2.7,2c-0.5,0.4-1.1,0.7-1.6,1c-1.1,0.6-2.2,1.2-3.3,1.7c0,0,0,0,0,0c-2.2,0.9-4.4,1.4-6.8,1.3
					c-0.1,0-0.3,0-0.4,0c-0.1,0-0.3,0-0.4,0c-0.1,0-0.3,0-0.4,0c1.1,0.1,2.3,0.1,3.4-0.1c11.5-1.9,18.4-18.1,15.4-36.2
					c-0.6-3.6-1.5-7.1-2.8-10.2c5.8,4.3,13.5,8,22.1,7.9c18.9-0.3,77.2-42.5,62.4-73.8c4.2-0.5,8.5-0.4,12.5,1
					C580.2,231.9,585.3,262.6,580.9,271.3z"/>
				<path class="st6" d="M467.4,257.7c0,0,30.2,6.7,28.3,57.9c6.8,3.3,18.9-2.7,19.6-9.3c0.7-6.6-0.4-40.7-31.5-54.6
					C474.2,248.2,467.4,257.7,467.4,257.7z"/>
				<path class="st6" d="M513.8,239.9c0,0,29,6.4,27.2,55.5c6.6,3.2,18.2-2.6,18.8-8.9c0.7-6.4-0.4-39.1-30.2-52.4
					C520.3,230.7,513.8,239.9,513.8,239.9z"/>
				<path class="st5" d="M506.4,271.2c0,0-15.5,2.8-16.7,7.8c-1.1,5,21-3.3,20.3-5.2C509.4,271.8,508.5,270.7,506.4,271.2z"/>
				<path class="st5" d="M552.2,255.5c0,0-15.5,2.8-16.7,7.8c-1.1,5,21-3.3,20.3-5.2C555.2,256.1,554.3,255,552.2,255.5z"/>
				<path class="st6" d="M499.9,469.8c0.2,1.7-11.5,6.1-23.4,4.9c-8.4-0.8-16.9-4.4-21.4-13.7c-8.9-18.3-13.1-51.3-7.2-66.5
					c1.3-3.3,3.1-5.8,5.4-7.1c0,0-9.9,33.2,39.3,26c-0.5,3.7-0.7,7.6-0.5,11.6C492.6,445.3,499.7,467.3,499.9,469.8z"/>
				<path class="st6" d="M533.3,431.1c0,0,2.7,27.6,5.9,28.3c3.2,0.7,43.1-15.6,43.2-27.3c0.1-11.7-1.9-21.1-6.8-24.5
					C570.9,404.2,532.4,423.4,533.3,431.1z"/>
				<circle class="st3" cx="557" cy="355.6" r="4"/>
				<path class="st4" d="M473.3,328.1c0,0-8,40.2-3,66.3"/>
				<path class="st9" d="M499.9,469.8c0.2,1.7-11.5,6.1-23.4,4.9c14.8-8.4,7.1-48.1,4.7-50.8c-2.9-3.4-19.4-1.2-28.1-12
					c-4.7-5.8-5.5-12.5-5.2-17.3c1.3-3.3,3.1-5.8,5.4-7.1c0,0-9.9,33.2,39.3,26C489.5,435.8,499.6,466.9,499.9,469.8z"/>
				<path class="st9" d="M584.4,429.6c0,1.4-0.1,2.7-0.3,3.9c-2.5,17.9-46.3,37.6-62.3,41.4c-16,3.8-21.9-5.1-21.9-5.1
					c-0.2-2.5-7.3-24.5-7.8-44.8l0.5-11.6c0,0,9.1,44.1,18.2,49.1c9.2,5,18.5,2.3,17.9-12.1c-0.6-14.4,3.4-24.2,11.1-27.4
					C547.3,419.8,569.5,452.8,584.4,429.6z"/>
			</g>
		</g>
		<g>
			<g>
				<path class="st5" d="M610.9,474.6c0,0,18.8-65.4,66.7-87.8c-3.2,13.7-1.1,94.4-26.8,113.2h-56.6L610.9,474.6z"/>
				<path class="st4" d="M677.6,386.8c0,0-24.3,23.9-33.7,56.6c-9.4,32.7-17.2,51.2-20.4,56.6"/>
				<path class="st4" d="M613.6,466.5c0,0,14.5,10.7,15.2,22.1c26.6-12.5,36.1-11,36.1-11"/>
				<path class="st4" d="M623.5,442.7c0,0,13.3,8.3,14.8,19.2c0,0,21-10.4,32.9-10.8"/>
				<path class="st4" d="M639.3,418.1c0,0,8.6,3.3,9.4,12.1c12.7-5.2,25.7-5,25.7-5"/>
			</g>
			<g>
				<path class="st14" d="M558.7,500c0,0-0.2-40.1,54.1-57.3c7.8,32.1-14.4,57.3-14.4,57.3L558.7,500z"/>
				<path class="st4" d="M612.8,442.7c0,0-34.7,45-34.4,57.3"/>
				<path class="st4" d="M564.6,479.2c0,0,13.5,3.7,15.6,13.6c12.4-4,24.5-2.1,24.5-2.1"/>
				<path class="st4" d="M578,461.8c0,0,10.9,6.4,11.5,14c16.9-5.8,22.6-2.7,22.6-2.7"/>
				<path class="st4" d="M593.1,451c0,0,5.7,4.7,6.4,9.9c7.7-2.2,14.9-1.5,14.9-1.5"/>
			</g>
		</g>
		<g>
			<g>
				<path class="st5" d="M252.3,463.4c0,0,11-113.7-119.9-95.1C134.5,421.6,191.2,462.4,252.3,463.4z"/>
				<path class="st4" d="M132.4,368.3c0,0,46.7,57.4,118.9,92.5"/>
				<path class="st4" d="M144.4,407.2l25.7-1c0,0,0.1-26.5,6-39"/>
				<path class="st4" d="M164.6,430.8l34-2.6c0,0-2-45.4,2.3-55.1"/>
				<path class="st4" d="M191.9,448.9l30.4-4c0,0,0.9-47.6,7.1-53"/>
			</g>
			<path class="st14" d="M252.3,463.4c0,0-29.4-25.6,0-70.5C275.4,415.4,280.9,451.7,252.3,463.4z"/>
			<path class="st4" d="M252.3,392.9c0,0,12,19.8,0,70.5"/>
			<path class="st4" d="M242.3,413.3c0,0,12.4,5.1,15.4,8.4c7.9-5.5,9.8-6.8,9.8-6.8"/>
			<path class="st4" d="M239.3,428.2c0,0,15.8,6.3,17.5,9.2c8.1-5.9,14.8-6.7,14.8-6.7"/>
			<path class="st4" d="M240.4,441.8c0,0,13.2,6.4,14.4,9.6c7.3-6.9,15.4-6.8,15.4-6.8"/>
		</g>
	</g>
</g>
<g id="DESIGNED_BY_FREEPIK">
</g>
</svg>
